{
  "accessors": [
    {
      "bufferView": 2,
      "componentType": 5126,
      "count": 129,
      "max": [
        1.2173540592193604,
        1.2166310548782349,
        1.2771730422973633
      ],
      "min": [
        -1.2173540592193604,
        -1.3472269773483276,
        1.0497790575027466
      ],
      "type": "VEC3"
    },
    {
      "bufferView": 2,
      "byteOffset": 1548,
      "componentType": 5126,
      "count": 129,
      "max": [
        0,
        0.78991734981536865,
        0.99992561340332031
      ],
      "min": [
        0,
        -0.38289639353752136,
        -1
      ],
      "type": "VEC3"
    },
    {
      "bufferView": 1,
      "componentType": 5126,
      "count": 129,
      "max": [
        0,
        0
      ],
      "min": [
        0,
        0
      ],
      "type": "VEC2"
    },
    {
      "bufferView": 0,
      "componentType": 5125,
      "count": 384,
      "max": [
        128
      ],
      "min": [
        0
      ],
      "type": "SCALAR"
    },
    {
      "bufferView": 2,
      "byteOffset": 3096,
      "componentType": 5126,
      "count": 3618,
      "max": [
        1.5309439897537231,
        1.6453449726104736,
        4.3497462272644043
      ],
      "min": [
        -1.5309439897537231,
        -0.65872502326965332,
        1.1571700572967529
      ],
      "type": "VEC3"
    },
    {
      "bufferView": 2,
      "byteOffset": 46512,
      "componentType": 5126,
      "count": 3618,
      "max": [
        0.9999997615814209,
        0.99977737665176392,
        0.99971896409988403
      ],
      "min": [
        -0.9999997615814209,
        -0.99981945753097534,
        -0.99988257884979248
      ],
      "type": "VEC3"
    },
    {
      "bufferView": 3,
      "componentType": 5126,
      "count": 3618,
      "max": [
        1,
        0.99995315074920654,
        0.9906848669052124,
        1
      ],
      "min": [
        -0.99963861703872681,
        -0.99995070695877075,
        -0.9999651312828064,
        1
      ],
      "type": "VEC4"
    },
    {
      "bufferView": 1,
      "byteOffset": 1032,
      "componentType": 5126,
      "count": 3618,
      "max": [
        1.7152659893035889,
        1.3802180290222168
      ],
      "min": [
        -0.42282399535179138,
        -0.71985000371932983
      ],
      "type": "VEC2"
    },
    {
      "bufferView": 0,
      "byteOffset": 1536,
      "componentType": 5125,
      "count": 20052,
      "max": [
        3617
      ],
      "min": [
        0
      ],
      "type": "SCALAR"
    },
    {
      "bufferView": 2,
      "byteOffset": 89928,
      "componentType": 5126,
      "count": 10700,
      "max": [
        1.4775500297546387,
        1.5748360157012939,
        4.3458600044250488
      ],
      "min": [
        -1.4775500297546387,
        -1.4986820220947266,
        1.1087750196456909
      ],
      "type": "VEC3"
    },
    {
      "bufferView": 2,
      "byteOffset": 218328,
      "componentType": 5126,
      "count": 10700,
      "max": [
        0.99999618530273438,
        1,
        1
      ],
      "min": [
        -0.99999618530273438,
        -1,
        -1
      ],
      "type": "VEC3"
    },
    {
      "bufferView": 3,
      "byteOffset": 57888,
      "componentType": 5126,
      "count": 10700,
      "max": [
        1,
        1,
        1,
        1
      ],
      "min": [
        -1,
        -1,
        -1,
        1
      ],
      "type": "VEC4"
    },
    {
      "bufferView": 1,
      "byteOffset": 29976,
      "componentType": 5126,
      "count": 10700,
      "max": [
        3.4482729434967041,
        3.4837539196014404
      ],
      "min": [
        -2.4584109783172607,
        -2.4837551116943359
      ],
      "type": "VEC2"
    },
    {
      "bufferView": 0,
      "byteOffset": 81744,
      "componentType": 5125,
      "count": 59586,
      "max": [
        10699
      ],
      "min": [
        0
      ],
      "type": "SCALAR"
    },
    {
      "bufferView": 2,
      "byteOffset": 346728,
      "componentType": 5126,
      "count": 145,
      "max": [
        1.2214189767837524,
        1.3622380495071411,
        1.243818998336792
      ],
      "min": [
        -1.2214189767837524,
        1.0888359546661377,
        1.0698679685592651
      ],
      "type": "VEC3"
    },
    {
      "bufferView": 2,
      "byteOffset": 348468,
      "componentType": 5126,
      "count": 145,
      "max": [
        0.99735540151596069,
        0.97514379024505615,
        0.99997341632843018
      ],
      "min": [
        -0.99735540151596069,
        -0.99990618228912354,
        -0.99986720085144043
      ],
      "type": "VEC3"
    },
    {
      "bufferView": 3,
      "byteOffset": 229088,
      "componentType": 5126,
      "count": 145,
      "max": [
        0.67534148693084717,
        0.99997341632843018,
        0.99987685680389404,
        1
      ],
      "min": [
        -0.67534148693084717,
        -0.99987834692001343,
        -0.95538616180419922,
        -1
      ],
      "type": "VEC4"
    },
    {
      "bufferView": 1,
      "byteOffset": 115576,
      "componentType": 5126,
      "count": 145,
      "max": [
        0.79719799757003784,
        0.54577898979187012
      ],
      "min": [
        0.057443998754024506,
        0.21386900544166565
      ],
      "type": "VEC2"
    },
    {
      "bufferView": 0,
      "byteOffset": 320088,
      "componentType": 5125,
      "count": 300,
      "max": [
        144
      ],
      "min": [
        0
      ],
      "type": "SCALAR"
    },
    {
      "bufferView": 2,
      "byteOffset": 350208,
      "componentType": 5126,
      "count": 18203,
      "max": [
        1.5200740098953247,
        1.6299699544906616,
        4.5282120704650879
      ],
      "min": [
        -1.5200740098953247,
        -1.5561039447784424,
        0.00025199999799951911
      ],
      "type": "VEC3"
    },
    {
      "bufferView": 2,
      "byteOffset": 568644,
      "componentType": 5126,
      "count": 18203,
      "max": [
        1,
        1,
        1
      ],
      "min": [
        -1,
        -1,
        -1
      ],
      "type": "VEC3"
    },
    {
      "bufferView": 3,
      "byteOffset": 231408,
      "componentType": 5126,
      "count": 18203,
      "max": [
        0.99999707937240601,
        0.99999082088470459,
        1,
        1
      ],
      "min": [
        -0.99999707937240601,
        -0.99999862909317017,
        -1,
        -1
      ],
      "type": "VEC4"
    },
    {
      "bufferView": 1,
      "byteOffset": 116736,
      "componentType": 5126,
      "count": 18203,
      "max": [
        0.99640399217605591,
        0.99620002508163452
      ],
      "min": [
        0.002584999892860651,
        0.0025770000647753477
      ],
      "type": "VEC2"
    },
    {
      "bufferView": 0,
      "byteOffset": 321288,
      "componentType": 5125,
      "count": 67194,
      "max": [
        18202
      ],
      "min": [
        0
      ],
      "type": "SCALAR"
    }
  ],
  "asset": {
    "extras": {
      "author": "Interiors3D (https://sketchfab.com/Interiors3D)",
      "license": "CC-BY-4.0 (http://creativecommons.org/licenses/by/4.0/)",
      "source": "https://sketchfab.com/3d-models/a40068-dfe8de0f6f944d5ebb6cf755d9669447",
      "title": "A40068"
    },
    "generator": "Sketchfab-8.51.0",
    "version": "2.0"
  },
  "bufferViews": [
    {
      "buffer": 0,
      "byteLength": 590064,
      "byteOffset": 0,
      "name": "floatBufferViews",
      "target": 34963
    },
    {
      "buffer": 0,
      "byteLength": 262360,
      "byteOffset": 590064,
      "byteStride": 8,
      "name": "floatBufferViews",
      "target": 34962
    },
    {
      "buffer": 0,
      "byteLength": 787080,
      "byteOffset": 852424,
      "byteStride": 12,
      "name": "floatBufferViews",
      "target": 34962
    },
    {
      "buffer": 0,
      "byteLength": 522656,
      "byteOffset": 1639504,
      "byteStride": 16,
      "name": "floatBufferViews",
      "target": 34962
    }
  ],
  "buffers": [
    {
      "byteLength": 2162160,
      "uri": "scene.bin"
    }
  ],
  "images": [
    {
      "uri": "textures/Fabric_baseColor.jpeg"
    },
    {
      "uri": "textures/Fabric_metallicRoughness.png"
    },
    {
      "uri": "textures/Fabric_normal.png"
    },
    {
      "uri": "textures/Fabric_dark_baseColor.jpeg"
    },
    {
      "uri": "textures/Fabric_dark_metallicRoughness.png"
    },
    {
      "uri": "textures/Fabric_dark_normal.png"
    },
    {
      "uri": "textures/Wood_-_white_baseColor.jpeg"
    },
    {
      "uri": "textures/Wood_-_white_metallicRoughness.png"
    },
    {
      "uri": "textures/Wood_-_white_normal.png"
    }
  ],
  "materials": [
    {
      "doubleSided": true,
      "emissiveFactor": [
        0,
        0,
        0
      ],
      "name": "Back",
      "pbrMetallicRoughness": {
        "baseColorFactor": [
          0.114756,
          0.114756,
          0.114756,
          1
        ],
        "metallicFactor": 0,
        "roughnessFactor": 0.80635083268962915
      }
    },
    {
      "doubleSided": true,
      "name": "Fabric",
      "normalTexture": {
        "index": 2,
        "scale": 0.59999999999999998,
        "texCoord": 0
      },
      "pbrMetallicRoughness": {
        "baseColorFactor": [
          1,
          1,
          1,
          1
        ],
        "baseColorTexture": {
          "index": 0,
          "texCoord": 0
        },
        "metallicFactor": 0,
        "metallicRoughnessTexture": {
          "index": 1,
          "texCoord": 0
        },
        "roughnessFactor": 1
      }
    },
    {
      "doubleSided": true,
      "name": "Fabric_dark",
      "normalTexture": {
        "index": 5,
        "scale": 0.59999999999999998,
        "texCoord": 0
      },
      "pbrMetallicRoughness": {
        "baseColorFactor": [
          0.29999999999999999,
          0.29999999999999999,
          0.29999999999999999,
          1
        ],
        "baseColorTexture": {
          "index": 3,
          "texCoord": 0
        },
        "metallicFactor": 0,
        "metallicRoughnessTexture": {
          "index": 4,
          "texCoord": 0
        },
        "roughnessFactor": 1
      }
    },
    {
      "doubleSided": true,
      "name": "Wood_-_white",
      "normalTexture": {
        "index": 8,
        "scale": 1,
        "texCoord": 0
      },
      "pbrMetallicRoughness": {
        "baseColorFactor": [
          1,
          1,
          1,
          1
        ],
        "baseColorTexture": {
          "index": 6,
          "texCoord": 0
        },
        "metallicFactor": 0,
        "metallicRoughnessTexture": {
          "index": 7,
          "texCoord": 0
        },
        "roughnessFactor": 1
      }
    }
  ],
  "meshes": [
    {
      "primitives": [
        {
          "attributes": {
            "NORMAL": 1,
            "POSITION": 0,
            "TEXCOORD_0": 2
          },
          "indices": 3,
          "material": 0,
          "mode": 4
        }
      ]
    },
    {
      "primitives": [
        {
          "attributes": {
            "NORMAL": 5,
            "POSITION": 4,
            "TANGENT": 6,
            "TEXCOORD_0": 7
          },
          "indices": 8,
          "material": 1,
          "mode": 4
        }
      ]
    },
    {
      "primitives": [
        {
          "attributes": {
            "NORMAL": 10,
            "POSITION": 9,
            "TANGENT": 11,
            "TEXCOORD_0": 12
          },
          "indices": 13,
          "material": 2,
          "mode": 4
        }
      ]
    },
    {
      "primitives": [
        {
          "attributes": {
            "NORMAL": 15,
            "POSITION": 14,
            "TANGENT": 16,
            "TEXCOORD_0": 17
          },
          "indices": 18,
          "material": 3,
          "mode": 4
        }
      ]
    },
    {
      "primitives": [
        {
          "attributes": {
            "NORMAL": 20,
            "POSITION": 19,
            "TANGENT": 21,
            "TEXCOORD_0": 22
          },
          "indices": 23,
          "material": 3,
          "mode": 4
        }
      ]
    }
  ],
  "nodes": [
    {
      "children": [
        1
      ],
      "name": "RootNode (gltf orientation matrix)",
      "rotation": [
        -0.70710678118654746,
        -0,
        -0,
        0.70710678118654757
      ]
    },
    {
      "children": [
        2
      ],
      "name": "RootNode (model correction matrix)"
    },
    {
      "children": [
        3,
        4,
        5,
        6,
        7
      ],
      "name": "W11 - A40000 - Sketchfab - mesh - white.obj.cleaner.materialmerger.gles"
    },
    {
      "mesh": 0,
      "name": ""
    },
    {
      "mesh": 1,
      "name": ""
    },
    {
      "mesh": 2,
      "name": ""
    },
    {
      "mesh": 3,
      "name": ""
    },
    {
      "mesh": 4,
      "name": ""
    }
  ],
  "samplers": [
    {
      "magFilter": 9729,
      "minFilter": 9987,
      "wrapS": 10497,
      "wrapT": 10497
    }
  ],
  "scene": 0,
  "scenes": [
    {
      "name": "OSG_Scene",
      "nodes": [
        0
      ]
    }
  ],
  "textures": [
    {
      "sampler": 0,
      "source": 0
    },
    {
      "sampler": 0,
      "source": 1
    },
    {
      "sampler": 0,
      "source": 2
    },
    {
      "sampler": 0,
      "source": 3
    },
    {
      "sampler": 0,
      "source": 4
    },
    {
      "sampler": 0,
      "source": 5
    },
    {
      "sampler": 0,
      "source": 6
    },
    {
      "sampler": 0,
      "source": 7
    },
    {
      "sampler": 0,
      "source": 8
    }
  ]
}

